<?xml version="1.0" encoding="UTF-8"?>
<svg id="Layer_1" data-name="Layer 1" xmlns="http://www.w3.org/2000/svg" viewBox="0 0 425.2 425.2">
  <defs>
    <style>
      .cls-1 {
        fill: #fff;
      }

      .cls-2 {
        fill: #e31e31;
      }
    </style>
  </defs>
  <rect class="cls-2" width="425.2" height="425.2"/>
  <g>
    <path class="cls-1" d="M269.56,49.76c.43.15.86.32,1.3.44,3.66,1,6.47,3.29,8.84,6.09,11.16,13.22,22.26,26.49,33.38,39.74.18.21.33.46.54.64,1.47,1.34,1.45,2.88.61,4.53-.92,1.8-2.18,3.12-4.35,3.23-.24.01-.48,0-.72,0-50,0-100,0-150,.03-.83,0-1.76.21-2.48.61-2.04,1.16-3.65,2.81-4.67,4.96-.13.28-.17.6-.2.91-.03.36,0,.72,0,1.08,0,84.93-.02,169.86.06,254.79,0,3.19-1.52,5.12-3.65,6.95-1.32,1.13-2.82,1.55-4.61,1.55-28.26-.05-56.51-.06-84.77,0-3.55,0-5.17-2.29-5.68-4.82-.13-.63.1-1.55.51-2.05,2.99-3.64,6.06-7.22,9.13-10.8,3.04-3.55,6.12-7.07,9.14-10.63,2.43-2.87,4.19-6.08,4.75-9.86.05-.35.05-.72.05-1.07,0-81.29.01-162.59-.02-243.88,0-3.79-1.68-7.11-4.05-9.98-5.12-6.19-10.34-12.28-15.52-18.42-1.98-2.35-3.98-4.69-5.88-7.11-.38-.49-.62-1.36-.47-1.95.65-2.67,2.08-4.9,5.74-4.9,70.34.04,140.69.03,211.03.03.59,0,1.19-.08,1.78-.12h.24-.03Z"/>
    <path class="cls-1" d="M375.32,371.84c-.9,3.05-3.18,3.64-6.03,3.63-26.14-.04-52.28-.05-78.42,0-4.36,0-8.33-1.12-11.72-3.77-7.61-5.96-15.16-12.02-22.63-18.15-2.71-2.22-4.92-4.94-5.73-8.49-.22-.96-.38-1.96-.38-2.95-.02-20.78-.02-41.57-.01-62.35,0-2.99,2.92-5.75,5.88-5.48.58.05,1.17.47,1.65.85,5.03,4.01,10.04,8.04,15.06,12.07,33.39,26.78,66.78,53.56,100.16,80.35.75.6,1.44,1.26,2.16,1.89v2.4h.01Z"/>
    <path class="cls-1" d="M329.77,136.92c13.39,0,26.77-.02,40.16.02,3.52,0,5.05,1.53,5.15,5.11.02.92-.45,1.41-1.04,1.88-3.16,2.57-6.33,5.13-9.51,7.68-31.85,25.56-63.7,51.11-95.55,76.67-25.12,20.15-50.24,40.3-75.36,60.46-.41.33-.86.6-1.21.98-1.51,1.64-3.19,1.43-4.98.57-1.93-.93-3.01-2.38-3.01-4.59,0-20.9,0-41.8,0-62.7,0-3.29,1.09-6.29,3.4-8.57,2.83-2.8,5.86-5.42,8.96-7.92,26.53-21.33,53.1-42.61,79.67-63.9,3.04-2.44,6.24-4.61,10.18-5.32,1.09-.2,2.21-.34,3.32-.35,13.27-.02,26.53-.02,39.8-.02h.01Z"/>
  </g>
</svg>